<mxfile host="Electron" agent="Mozilla/5.0 (Windows NT 10.0; Win64; x64) AppleWebKit/537.36 (KHTML, like Gecko) draw.io/26.2.15 Chrome/134.0.6998.205 Electron/35.2.1 Safari/537.36" version="26.2.15">
  <diagram name="Page-1" id="Gr0exGioiSzuG1VfRmxI">
    <mxGraphModel dx="2253" dy="841" grid="1" gridSize="10" guides="1" tooltips="1" connect="1" arrows="1" fold="1" page="1" pageScale="1" pageWidth="827" pageHeight="1169" math="0" shadow="0">
      <root>
        <mxCell id="0" />
        <mxCell id="1" parent="0" />
        <mxCell id="SATTeLRpO7HJeGXggJZ2-2" value="&lt;font style=&quot;font-size: 23px;&quot;&gt;&lt;b&gt;Data Flow Diagram&lt;/b&gt;&lt;/font&gt;" style="text;html=1;align=center;verticalAlign=middle;whiteSpace=wrap;rounded=0;" parent="1" vertex="1">
          <mxGeometry x="-580" y="60" width="260" height="60" as="geometry" />
        </mxCell>
        <mxCell id="SATTeLRpO7HJeGXggJZ2-3" value="" style="rounded=0;whiteSpace=wrap;html=1;dashed=1;fillColor=none;" parent="1" vertex="1">
          <mxGeometry x="-770" y="220" width="160" height="520" as="geometry" />
        </mxCell>
        <mxCell id="SATTeLRpO7HJeGXggJZ2-14" style="edgeStyle=orthogonalEdgeStyle;rounded=0;orthogonalLoop=1;jettySize=auto;html=1;" parent="1" source="SATTeLRpO7HJeGXggJZ2-4" target="SATTeLRpO7HJeGXggJZ2-12" edge="1">
          <mxGeometry relative="1" as="geometry">
            <Array as="points">
              <mxPoint x="-580" y="358" />
              <mxPoint x="-580" y="358" />
            </Array>
          </mxGeometry>
        </mxCell>
        <mxCell id="SATTeLRpO7HJeGXggJZ2-4" value="&lt;b&gt;&lt;font style=&quot;font-size: 14px;&quot;&gt;CRM&lt;/font&gt;&lt;/b&gt;" style="image;aspect=fixed;html=1;points=[];align=center;fontSize=12;image=img/lib/azure2/general/Folder_Blank.svg;" parent="1" vertex="1">
          <mxGeometry x="-730" y="330" width="69" height="56.00000000000001" as="geometry" />
        </mxCell>
        <mxCell id="SATTeLRpO7HJeGXggJZ2-21" style="edgeStyle=orthogonalEdgeStyle;rounded=0;orthogonalLoop=1;jettySize=auto;html=1;" parent="1" source="SATTeLRpO7HJeGXggJZ2-5" target="SATTeLRpO7HJeGXggJZ2-19" edge="1">
          <mxGeometry relative="1" as="geometry">
            <Array as="points">
              <mxPoint x="-560" y="577" />
              <mxPoint x="-560" y="577" />
            </Array>
          </mxGeometry>
        </mxCell>
        <mxCell id="SATTeLRpO7HJeGXggJZ2-5" value="&lt;b&gt;&lt;font style=&quot;font-size: 14px;&quot;&gt;ERP&lt;/font&gt;&lt;/b&gt;" style="image;aspect=fixed;html=1;points=[];align=center;fontSize=12;image=img/lib/azure2/general/Folder_Blank.svg;" parent="1" vertex="1">
          <mxGeometry x="-724.5" y="549" width="69" height="56.00000000000001" as="geometry" />
        </mxCell>
        <mxCell id="SATTeLRpO7HJeGXggJZ2-7" value="" style="rounded=1;whiteSpace=wrap;html=1;fillColor=none;strokeColor=#E9C600;" parent="1" vertex="1">
          <mxGeometry x="-530" y="260" width="200" height="480" as="geometry" />
        </mxCell>
        <mxCell id="SATTeLRpO7HJeGXggJZ2-8" value="&lt;font style=&quot;color: rgb(0, 0, 0);&quot;&gt;&lt;b&gt;Bronze Layer&lt;/b&gt;&lt;/font&gt;" style="rounded=1;whiteSpace=wrap;html=1;fillColor=#ffcc99;strokeColor=#36393d;" parent="1" vertex="1">
          <mxGeometry x="-530" y="220" width="200" height="30" as="geometry" />
        </mxCell>
        <mxCell id="df2JoMLtaE7-wZHWe_KH-9" style="edgeStyle=orthogonalEdgeStyle;rounded=0;orthogonalLoop=1;jettySize=auto;html=1;" parent="1" source="SATTeLRpO7HJeGXggJZ2-9" target="df2JoMLtaE7-wZHWe_KH-3" edge="1">
          <mxGeometry relative="1" as="geometry" />
        </mxCell>
        <mxCell id="SATTeLRpO7HJeGXggJZ2-9" value="&lt;font style=&quot;color: rgb(0, 0, 0);&quot;&gt;crm_cust_info&lt;/font&gt;" style="rounded=1;whiteSpace=wrap;html=1;fillColor=#ffcc99;strokeColor=#36393d;" parent="1" vertex="1">
          <mxGeometry x="-520" y="293" width="180" height="30" as="geometry" />
        </mxCell>
        <mxCell id="df2JoMLtaE7-wZHWe_KH-10" style="edgeStyle=orthogonalEdgeStyle;rounded=0;orthogonalLoop=1;jettySize=auto;html=1;" parent="1" source="SATTeLRpO7HJeGXggJZ2-12" target="df2JoMLtaE7-wZHWe_KH-4" edge="1">
          <mxGeometry relative="1" as="geometry" />
        </mxCell>
        <mxCell id="SATTeLRpO7HJeGXggJZ2-12" value="&lt;font style=&quot;color: rgb(0, 0, 0);&quot;&gt;crm_prd&lt;/font&gt;&lt;span style=&quot;background-color: transparent; color: rgb(0, 0, 0);&quot;&gt;_info&lt;/span&gt;" style="rounded=1;whiteSpace=wrap;html=1;fillColor=#ffcc99;strokeColor=#36393d;" parent="1" vertex="1">
          <mxGeometry x="-520" y="350" width="180" height="30" as="geometry" />
        </mxCell>
        <mxCell id="df2JoMLtaE7-wZHWe_KH-11" style="edgeStyle=orthogonalEdgeStyle;rounded=0;orthogonalLoop=1;jettySize=auto;html=1;" parent="1" source="SATTeLRpO7HJeGXggJZ2-13" target="df2JoMLtaE7-wZHWe_KH-5" edge="1">
          <mxGeometry relative="1" as="geometry" />
        </mxCell>
        <mxCell id="SATTeLRpO7HJeGXggJZ2-13" value="&lt;font style=&quot;color: rgb(0, 0, 0);&quot;&gt;crm_sales&lt;/font&gt;&lt;span style=&quot;background-color: transparent; color: rgb(0, 0, 0);&quot;&gt;_detail&lt;/span&gt;" style="rounded=1;whiteSpace=wrap;html=1;fillColor=#ffcc99;strokeColor=#36393d;" parent="1" vertex="1">
          <mxGeometry x="-520" y="400" width="180" height="30" as="geometry" />
        </mxCell>
        <mxCell id="SATTeLRpO7HJeGXggJZ2-15" style="edgeStyle=orthogonalEdgeStyle;rounded=0;orthogonalLoop=1;jettySize=auto;html=1;entryX=0.01;entryY=0.096;entryDx=0;entryDy=0;entryPerimeter=0;" parent="1" source="SATTeLRpO7HJeGXggJZ2-4" target="SATTeLRpO7HJeGXggJZ2-7" edge="1">
          <mxGeometry relative="1" as="geometry" />
        </mxCell>
        <mxCell id="SATTeLRpO7HJeGXggJZ2-16" style="edgeStyle=orthogonalEdgeStyle;rounded=0;orthogonalLoop=1;jettySize=auto;html=1;entryX=0.005;entryY=0.327;entryDx=0;entryDy=0;entryPerimeter=0;" parent="1" source="SATTeLRpO7HJeGXggJZ2-4" target="SATTeLRpO7HJeGXggJZ2-7" edge="1">
          <mxGeometry relative="1" as="geometry" />
        </mxCell>
        <mxCell id="df2JoMLtaE7-wZHWe_KH-12" style="edgeStyle=orthogonalEdgeStyle;rounded=0;orthogonalLoop=1;jettySize=auto;html=1;" parent="1" source="SATTeLRpO7HJeGXggJZ2-18" target="df2JoMLtaE7-wZHWe_KH-6" edge="1">
          <mxGeometry relative="1" as="geometry" />
        </mxCell>
        <mxCell id="SATTeLRpO7HJeGXggJZ2-18" value="&lt;font color=&quot;#000000&quot;&gt;erp_cust_az12&lt;/font&gt;" style="rounded=1;whiteSpace=wrap;html=1;fillColor=#ffcc99;strokeColor=#36393d;" parent="1" vertex="1">
          <mxGeometry x="-520" y="500" width="180" height="30" as="geometry" />
        </mxCell>
        <mxCell id="df2JoMLtaE7-wZHWe_KH-13" style="edgeStyle=orthogonalEdgeStyle;rounded=0;orthogonalLoop=1;jettySize=auto;html=1;" parent="1" source="SATTeLRpO7HJeGXggJZ2-19" target="df2JoMLtaE7-wZHWe_KH-7" edge="1">
          <mxGeometry relative="1" as="geometry" />
        </mxCell>
        <mxCell id="SATTeLRpO7HJeGXggJZ2-19" value="&lt;font color=&quot;#000000&quot;&gt;erp_loc_a101&lt;/font&gt;" style="rounded=1;whiteSpace=wrap;html=1;fillColor=#ffcc99;strokeColor=#36393d;" parent="1" vertex="1">
          <mxGeometry x="-520" y="560" width="180" height="30" as="geometry" />
        </mxCell>
        <mxCell id="df2JoMLtaE7-wZHWe_KH-14" style="edgeStyle=orthogonalEdgeStyle;rounded=0;orthogonalLoop=1;jettySize=auto;html=1;" parent="1" source="SATTeLRpO7HJeGXggJZ2-20" target="df2JoMLtaE7-wZHWe_KH-8" edge="1">
          <mxGeometry relative="1" as="geometry" />
        </mxCell>
        <mxCell id="SATTeLRpO7HJeGXggJZ2-20" value="&lt;font color=&quot;#000000&quot;&gt;erp_px_cat_g1v2&lt;/font&gt;" style="rounded=1;whiteSpace=wrap;html=1;fillColor=#ffcc99;strokeColor=#36393d;" parent="1" vertex="1">
          <mxGeometry x="-520" y="620" width="180" height="30" as="geometry" />
        </mxCell>
        <mxCell id="SATTeLRpO7HJeGXggJZ2-22" style="edgeStyle=orthogonalEdgeStyle;rounded=0;orthogonalLoop=1;jettySize=auto;html=1;entryX=-0.005;entryY=0.523;entryDx=0;entryDy=0;entryPerimeter=0;" parent="1" source="SATTeLRpO7HJeGXggJZ2-5" target="SATTeLRpO7HJeGXggJZ2-7" edge="1">
          <mxGeometry relative="1" as="geometry" />
        </mxCell>
        <mxCell id="SATTeLRpO7HJeGXggJZ2-23" style="edgeStyle=orthogonalEdgeStyle;rounded=0;orthogonalLoop=1;jettySize=auto;html=1;entryX=0.005;entryY=0.792;entryDx=0;entryDy=0;entryPerimeter=0;" parent="1" source="SATTeLRpO7HJeGXggJZ2-5" target="SATTeLRpO7HJeGXggJZ2-7" edge="1">
          <mxGeometry relative="1" as="geometry" />
        </mxCell>
        <mxCell id="SATTeLRpO7HJeGXggJZ2-24" value="&lt;font style=&quot;font-size: 14px; color: rgb(0, 0, 0);&quot;&gt;&lt;b&gt;Sources&lt;/b&gt;&lt;/font&gt;" style="rounded=0;whiteSpace=wrap;html=1;strokeColor=none;fillColor=#C0C8FF;" parent="1" vertex="1">
          <mxGeometry x="-750" y="200" width="120" height="40" as="geometry" />
        </mxCell>
        <mxCell id="df2JoMLtaE7-wZHWe_KH-1" value="" style="rounded=1;whiteSpace=wrap;html=1;fillColor=none;strokeColor=#B6B6B6;" parent="1" vertex="1">
          <mxGeometry x="-220" y="260" width="200" height="480" as="geometry" />
        </mxCell>
        <mxCell id="df2JoMLtaE7-wZHWe_KH-2" value="&lt;font style=&quot;color: rgb(0, 0, 0);&quot;&gt;&lt;b&gt;Bronze Layer&lt;/b&gt;&lt;/font&gt;" style="rounded=1;whiteSpace=wrap;html=1;fillColor=#bac8d3;strokeColor=#23445d;" parent="1" vertex="1">
          <mxGeometry x="-220" y="220" width="200" height="30" as="geometry" />
        </mxCell>
        <mxCell id="df2JoMLtaE7-wZHWe_KH-3" value="&lt;font style=&quot;color: rgb(0, 0, 0);&quot;&gt;crm_cust_info&lt;/font&gt;" style="rounded=1;whiteSpace=wrap;html=1;fillColor=#B6B6B6;strokeColor=#B6B6B6;" parent="1" vertex="1">
          <mxGeometry x="-210" y="293" width="180" height="30" as="geometry" />
        </mxCell>
        <mxCell id="df2JoMLtaE7-wZHWe_KH-4" value="&lt;font style=&quot;color: rgb(0, 0, 0);&quot;&gt;crm_prd&lt;/font&gt;&lt;span style=&quot;background-color: transparent; color: rgb(0, 0, 0);&quot;&gt;_info&lt;/span&gt;" style="rounded=1;whiteSpace=wrap;html=1;fillColor=#B6B6B6;strokeColor=#36393d;" parent="1" vertex="1">
          <mxGeometry x="-210" y="350" width="180" height="30" as="geometry" />
        </mxCell>
        <mxCell id="df2JoMLtaE7-wZHWe_KH-5" value="&lt;font style=&quot;color: rgb(0, 0, 0);&quot;&gt;crm_sales&lt;/font&gt;&lt;span style=&quot;background-color: transparent; color: rgb(0, 0, 0);&quot;&gt;_detail&lt;/span&gt;" style="rounded=1;whiteSpace=wrap;html=1;fillColor=#B6B6B6;strokeColor=#F6F6F6;" parent="1" vertex="1">
          <mxGeometry x="-210" y="400" width="180" height="30" as="geometry" />
        </mxCell>
        <mxCell id="df2JoMLtaE7-wZHWe_KH-6" value="&lt;font color=&quot;#000000&quot;&gt;erp_cust_az12&lt;/font&gt;" style="rounded=1;whiteSpace=wrap;html=1;fillColor=#B6B6B6;strokeColor=#36393d;" parent="1" vertex="1">
          <mxGeometry x="-210" y="500" width="180" height="30" as="geometry" />
        </mxCell>
        <mxCell id="df2JoMLtaE7-wZHWe_KH-7" value="&lt;font color=&quot;#000000&quot;&gt;erp_loc_a101&lt;/font&gt;" style="rounded=1;whiteSpace=wrap;html=1;fillColor=#B6B6B6;strokeColor=#36393d;" parent="1" vertex="1">
          <mxGeometry x="-210" y="560" width="180" height="30" as="geometry" />
        </mxCell>
        <mxCell id="df2JoMLtaE7-wZHWe_KH-8" value="&lt;font color=&quot;#000000&quot;&gt;erp_px_cat_g1v2&lt;/font&gt;" style="rounded=1;whiteSpace=wrap;html=1;fillColor=#B6B6B6;strokeColor=#36393d;" parent="1" vertex="1">
          <mxGeometry x="-210" y="620" width="180" height="30" as="geometry" />
        </mxCell>
        <mxCell id="qE-MOEBOQGz-7_DwSHq6-11" value="" style="rounded=1;whiteSpace=wrap;html=1;fillColor=none;strokeColor=#EFFF1D;" vertex="1" parent="1">
          <mxGeometry x="40" y="260" width="200" height="480" as="geometry" />
        </mxCell>
        <mxCell id="qE-MOEBOQGz-7_DwSHq6-12" value="&lt;font color=&quot;#000000&quot;&gt;&lt;b&gt;Gold_Layer&lt;/b&gt;&lt;/font&gt;" style="rounded=1;whiteSpace=wrap;html=1;fillColor=#F8FF2F;strokeColor=#E3E911;" vertex="1" parent="1">
          <mxGeometry x="40" y="220" width="200" height="30" as="geometry" />
        </mxCell>
        <mxCell id="qE-MOEBOQGz-7_DwSHq6-13" value="&lt;font style=&quot;color: rgb(0, 0, 0);&quot;&gt;fact_sales&lt;/font&gt;" style="rounded=1;whiteSpace=wrap;html=1;fillColor=#F8FF2F;strokeColor=#E3E911;" vertex="1" parent="1">
          <mxGeometry x="50" y="320" width="180" height="30" as="geometry" />
        </mxCell>
        <mxCell id="qE-MOEBOQGz-7_DwSHq6-14" value="&lt;font color=&quot;#000000&quot;&gt;dim_products&lt;/font&gt;" style="rounded=1;whiteSpace=wrap;html=1;fillColor=#EFFF1D;strokeColor=#E3E911;" vertex="1" parent="1">
          <mxGeometry x="50" y="450" width="180" height="30" as="geometry" />
        </mxCell>
        <mxCell id="qE-MOEBOQGz-7_DwSHq6-15" value="&lt;font color=&quot;#000000&quot;&gt;dim_customer&lt;/font&gt;" style="rounded=1;whiteSpace=wrap;html=1;fillColor=#EFFF1D;strokeColor=#E3E911;" vertex="1" parent="1">
          <mxGeometry x="50" y="575" width="180" height="30" as="geometry" />
        </mxCell>
        <mxCell id="qE-MOEBOQGz-7_DwSHq6-21" value="" style="endArrow=classic;html=1;rounded=0;entryX=0;entryY=0.5;entryDx=0;entryDy=0;exitX=1;exitY=0.5;exitDx=0;exitDy=0;strokeColor=#13E7FF;" edge="1" parent="1" source="df2JoMLtaE7-wZHWe_KH-5" target="qE-MOEBOQGz-7_DwSHq6-13">
          <mxGeometry width="50" height="50" relative="1" as="geometry">
            <mxPoint x="-10" y="590" as="sourcePoint" />
            <mxPoint x="40" y="540" as="targetPoint" />
          </mxGeometry>
        </mxCell>
        <mxCell id="qE-MOEBOQGz-7_DwSHq6-22" value="" style="endArrow=classic;html=1;rounded=0;entryX=0;entryY=0.5;entryDx=0;entryDy=0;exitX=1;exitY=0.25;exitDx=0;exitDy=0;strokeColor=#13E7FF;" edge="1" parent="1" source="df2JoMLtaE7-wZHWe_KH-3" target="qE-MOEBOQGz-7_DwSHq6-15">
          <mxGeometry width="50" height="50" relative="1" as="geometry">
            <mxPoint x="-20" y="425" as="sourcePoint" />
            <mxPoint x="60" y="345" as="targetPoint" />
          </mxGeometry>
        </mxCell>
        <mxCell id="qE-MOEBOQGz-7_DwSHq6-23" value="" style="endArrow=classic;html=1;rounded=0;entryX=0;entryY=0;entryDx=0;entryDy=0;exitX=1;exitY=0.5;exitDx=0;exitDy=0;strokeColor=#13E7FF;" edge="1" parent="1" source="df2JoMLtaE7-wZHWe_KH-6" target="qE-MOEBOQGz-7_DwSHq6-15">
          <mxGeometry width="50" height="50" relative="1" as="geometry">
            <mxPoint x="-20" y="311" as="sourcePoint" />
            <mxPoint x="60" y="600" as="targetPoint" />
          </mxGeometry>
        </mxCell>
        <mxCell id="qE-MOEBOQGz-7_DwSHq6-24" value="" style="endArrow=classic;html=1;rounded=0;entryX=0;entryY=0.75;entryDx=0;entryDy=0;exitX=1;exitY=0.5;exitDx=0;exitDy=0;strokeColor=#13E7FF;" edge="1" parent="1" source="df2JoMLtaE7-wZHWe_KH-7" target="qE-MOEBOQGz-7_DwSHq6-15">
          <mxGeometry width="50" height="50" relative="1" as="geometry">
            <mxPoint x="-20" y="525" as="sourcePoint" />
            <mxPoint x="70" y="610" as="targetPoint" />
          </mxGeometry>
        </mxCell>
        <mxCell id="qE-MOEBOQGz-7_DwSHq6-25" value="" style="endArrow=classic;html=1;rounded=0;entryX=0;entryY=0;entryDx=0;entryDy=0;exitX=1;exitY=0.5;exitDx=0;exitDy=0;strokeColor=#13E7FF;" edge="1" parent="1" source="df2JoMLtaE7-wZHWe_KH-4" target="qE-MOEBOQGz-7_DwSHq6-14">
          <mxGeometry width="50" height="50" relative="1" as="geometry">
            <mxPoint x="-20" y="425" as="sourcePoint" />
            <mxPoint x="60" y="345" as="targetPoint" />
          </mxGeometry>
        </mxCell>
        <mxCell id="qE-MOEBOQGz-7_DwSHq6-26" value="" style="endArrow=classic;html=1;rounded=0;entryX=0;entryY=0.75;entryDx=0;entryDy=0;exitX=1;exitY=0.5;exitDx=0;exitDy=0;strokeColor=#13E7FF;" edge="1" parent="1" source="df2JoMLtaE7-wZHWe_KH-8" target="qE-MOEBOQGz-7_DwSHq6-14">
          <mxGeometry width="50" height="50" relative="1" as="geometry">
            <mxPoint x="-20" y="375" as="sourcePoint" />
            <mxPoint x="60" y="460" as="targetPoint" />
          </mxGeometry>
        </mxCell>
      </root>
    </mxGraphModel>
  </diagram>
</mxfile>
